<?xml version="1.0" encoding="utf-8"?>
<!-- Generator: Adobe Illustrator 26.5.0, SVG Export Plug-In . SVG Version: 6.00 Build 0)  -->
<svg version="1.1" id="Layer_1" xmlns="http://www.w3.org/2000/svg" xmlns:xlink="http://www.w3.org/1999/xlink" x="0px" y="0px"
	 viewBox="0 0 595.3 595.3" style="enable-background:new 0 0 595.3 595.3;" xml:space="preserve">
<style type="text/css">
	.st0{opacity:0.1797;enable-background:new    ;}
	.st1{fill:#FFD600;}
	.st2{opacity:0.1797;fill:#0D1D42;enable-background:new    ;}
	.st3{fill:#0D1D42;}
</style>
<path class="st0" d="M274,38.7c-3.2,0.3-6.6,0.7-10.2,1.2C269.6,39.2,272.3,38.9,274,38.7z"/>
<g>
	<path class="st0" d="M362.1,573.6c-1.9,0.7-3.7,1.3-5.4,1.9C358.5,574.8,360.3,574.3,362.1,573.6z"/>
	<path class="st1" d="M575.4,306.4c-0.5-11.1-1.8-23.9-5.1-38.5c0,0.1,0,0.2,0.1,0.2c-0.7-3-1.6-6.2-2.5-9.4
		c-0.7-5-1.8-9.8-3.6-14.6c0.1-0.5,0.2-1.4,0.5-2.8c0.1-3.5,0.1-7,0.1-10.6c-0.1-3.5-0.4-7-0.6-10.6c-0.8-6.9-1.9-13.8-3.4-20.5
		c-0.9-5-1.2-6.7-1.2-6.9s0.5,0.9,0.8,1.7c-2-8.5-3.5-12.8-4.4-15.4c-0.9-2.6-1.4-3.5-2.1-4.9c-0.7-1.4-1.5-3.5-3.5-8.4
		c-1-2.4-2.1-5.6-4-9.6c-0.9-2-1.9-4.2-3-6.8c-1.2-2.5-2.5-5.2-4.1-8.3c-2.1-3.1-6.1-10.8-12.7-21.1c-6.6-10.2-16.1-22.9-29.2-34.4
		c-1.6-1.4-3.3-2.9-5-4.3c-0.2-0.2-0.4-0.3-0.6-0.4c-0.7-0.8-1.4-1.5-2.1-2.3c-14-14.8-26.1-22.3-28-22.8
		c-9.4-7.2-19.4-13.8-30-19.1c4.6,2.3,7.3,3.5,9.8,5c2.2,1.3,4.5,2.5,8,4.6c-13.7-9-24.4-13.5-33-16.8c-4.5-1.5-8.5-2.7-12.3-3.8
		c-0.5-0.1-0.9-0.2-1.3-0.3c-2.8-0.9-5.6-1.7-8.5-2.5c-2.4-0.4-4.8-0.7-7.3-1c3.9,0.8,7.6,1.7,11.5,2.6c-1.9-0.4-3.8-0.8-5.7-1.2
		c-3.8-0.6-7.8-1.1-12.3-1.7c-2.3-0.2-4.7-0.4-7.3-0.5c-2.6-0.2-5.3-0.5-8.4-0.4c-3,0-6.2,0-9.7,0c-3.5,0.3-7.3,0.5-11.4,0.8
		c-4.1,0.6-8.5,1.2-13.2,2c-0.4,0.1-0.7,0.2-1,0.2c-4.2-1-8.4-1.9-12.5-2.7c0.5-0.2,1-0.5,1.5-0.7c1-0.4,2.1-0.7,3.1-1.1
		c8.6-2.5,18.1-2.9,27.6-2.5c5.2-1,20.6-0.2,35.3,2.4c14.7,2.4,19.8,3.3,13.9,2.1c12.1,1.8,4.1-1.4-6.7-4.7
		c-10.8-3.4-24.6-6-22.7-7.1c-7-0.1-15.1-0.6-24.1-0.6c-4.5,0-9.2,0.2-14.2,0.8c-4.9,0.6-10.1,1.5-15.3,3.5l-2,0.8l-1.9,1
		c-1.3,0.6-2.5,1.5-3.8,2.3c-0.8,0.6-1.6,1.2-2.4,1.8c-9.5-1.4-32.8,1.5-41.7,1.3c-6.2,0-30.4,10.6-33.6,14.3
		c-1.2,1.5-9.6,4.3-10.8,5.7c-3.8,1.8-5.4,0.8-10.6,3.8c-2.8,0.1-1.6,2.2-4.4,2.5c1.5-0.9,3-1.7,4.4-2.5c-2.7,1.2-4.6,2-6.2,2.7
		c-1.9,0.2-3.8,0.5-5.7,0.8c0,0,0,0-0.1,0c-2.2,0.4-4.4,0.8-6.7,1.3c-17.3,4-33.5,12.5-46.9,23.6c-8.1,6.7-15.3,14.2-21.8,22
		c-4.5,2.6-8.9,5.3-13.3,8.1c-7.4,4.7-15.5,10-21.6,16.4c-6.5,6.9-11.1,15.6-14.5,24.7c-0.9,2.1-1.8,4.3-2.6,6.5
		c-0.9,0.6-1.9,1.2-2.9,1.9c-5.4,3.5-11,6.9-15.7,11.3c-4.9,4.6-9.1,9.2-12.1,15.4c-2.2,4.5-3.9,9.1-5.3,13.8
		c-1.1,3.1-2,6.2-2.9,9.3c-0.4,1.6-0.8,3.2-1.1,4.9c-1.8,3.8-3.7,7.5-5.1,11.5c-3.4,9.6-5.6,19.4-6.6,29.2
		c-1.1,9.8-1.4,19.6-0.6,29.5c0.7,8.2,1.9,16.5,3.8,24.7c0.4,5,1,10,1.7,14.9c2,13.6,4.6,27.2,7.5,40.6c-0.2,7.8-0.8,15.6-1.8,23.4
		c-0.1,0.9,1.2,0.6,2.5-0.1c0,0.6-0.1,1.1-0.2,1.7c-0.1,1,0.6,0.9,1.2,0.7c0.3-0.1,0.7-0.6,1-1.1c0.5,0.2,1.4-0.5,1.5-1.3
		c0.2-1.1,0.2-2.1,0.4-3.2c4.7,19,10.6,37.8,18.5,55.6c7.9,24,19.5,42.8,34.8,56.5c0.4,0.5,0.8,1,1.1,1.5
		c7.4,10,16.3,20.1,26.8,29.8c20.9,19.3,48.5,36.9,81.1,47.5c-1.6-0.1-3.1-0.2-4.7-0.4c5.1,1.9,13.1,4.4,22.2,6.9
		c9.1,2.5,19.5,4.6,29.4,6.3c-12-1.5-23.9-3.7-35.6-6.8c26.8,7.6,53.6,11.8,80.2,11.7c23,0,46-3.4,68-10.8c-8.5,2.8-15.8,4.6-21.8,6
		c-4.1,0.8-7.7,1.5-10.8,2c-3.1,0.4-5.6,0.8-7.7,1c-8.4,0.9-9.5,0.6-8.6,0.3c0.9-0.3,3.8-0.9,3.5-1.1c-0.2-0.1-1.1-0.2-3.5,0
		c-2.4,0.2-6.2,0.3-12.1,0.5c17.2-1.1,31.1-3.6,42.6-6.3c11.5-2.8,20.7-5.8,28.3-8.7c15.2-5.8,24.6-10.5,34.2-15.7
		c2.4-1.4,4.8-2.8,7.3-4.2c2.5-1.5,5-3.2,7.8-5c2.8-1.8,5.6-4,8.7-6.2c2.8-2.2,5.7-4.5,8.9-7.3c43.6-25,79.5-61.9,103.2-106.2
		c4.4-5.7,8.1-11,11.2-15.9c8.1-12.9,13-23.2,17.1-34.1c0.9-2.8,1.9-5.6,2.8-8.4c1-2.8,1.7-5.9,2.5-9.1c0.4-1.6,0.9-3.2,1.2-4.9
		c0.3-1.7,0.6-3.4,1-5.2c0.3-1.8,0.7-3.6,1-5.6c0.3-1.9,0.5-3.9,0.7-6c0.2-2,0.5-4.2,0.7-6.4c0.1-2.2,0.2-4.5,0.3-6.9
		C575.7,317.1,575.5,312,575.4,306.4z M405.6,38c-0.7,0-1.5,0-2.2-0.1c-8.4-0.5-6.4-0.6-2.9-0.9c0.7,0,1.6-0.1,2.4-0.1
		C403.7,37.3,404.6,37.7,405.6,38z M308.9,29.2c0.5,0,0.9,0.2,1.4,0.2c-1.5,0.5-3,1.1-4.4,1.6c0.3-0.2,0.6-0.5,0.9-0.7
		c0.5-0.4,1-0.8,1.4-1.2C308.4,29.1,308.6,29.2,308.9,29.2z M304.3,30.2c0.9-0.4,1.7-0.7,2.6-1.1c-0.9,0.4-1.6,0.7-2.5,1.1
		c0.6-0.4,1.1-0.9,1.6-1.3c0.7,0.1,1.3,0.2,2,0.3c-0.8,0.7-1.6,1.4-2.5,2c-0.9,0.4-1.7,0.7-2.5,1c-0.4,0-0.8,0-1.2,0
		C302.7,31.5,303.5,30.8,304.3,30.2z M253.9,28.6c4.2-1.2,8.8-1.9,13.5-2.1c4.7-0.2,9.4-0.3,14-0.1c4.6,0.2,9.2,0.5,13.8,1
		c0,0,0,0,0,0c-0.6,0.5-1.2,1-1.8,1.5c-0.5-0.2-1.4-0.5-2.9-0.8c-8.4-0.4-13.1-0.3-15.9-0.1c-2.8,0.2-3.7,0.5-4.5,0.7
		c-0.8,0.3-1.5,0.5-3.9,0.7c-2.4,0.3-6.5,0.5-14.1,1.4c-3.9,0.9,2.3,0.1,8.5-0.4c6.2-0.4,12.3-0.5,8.3,0c10.1-0.9,17.8-0.7,21.8-0.8
		c0.8,0,1.4,0,1.9-0.1c-1.1,0.9-2.1,1.9-3.2,2.8c-12.9,0.6-25.5,2-37.8,4.3c-2.2,0.3-4.5,0.7-6.9,1.1c2.9-0.8,6.4-2.4,6.1-3.2
		c-0.2-0.5-1.3-0.7-4-0.6c-1,0-2.1,0.1-3.4,0.3C246.6,31.6,249.9,29.8,253.9,28.6z M140.2,83.1c4.6-4,10.2-8.3,14.3-10.8
		c4.1-2.7,6.5-3.8,4.4-2.3c-1.3,1.1-4.9,3.3-10.7,8.3c-3.4,2.4-6.8,4.8-10.4,6.9c-0.1,0-0.1,0.1-0.1,0.1
		C138.6,84.5,139.4,83.8,140.2,83.1z M82.8,137.4c4.4-8.1,10.1-14.9,16.9-20.6c0.6-0.4,1.1-0.8,1.7-1.3c1-0.7,2.1-1.4,3.1-2
		c1.9-1.3,3.8-2.6,5.8-3.9c-0.1,0.2-0.3,0.3-0.4,0.5c-2.4,3.4-4.7,6.8-6.9,10.2c-6,6.7-11.7,13.7-17.1,21c-2.4,1.2-4.5,2.3-6.6,3.5
		C80.4,142.3,81.5,139.8,82.8,137.4z M50.8,174.8c1.2-1.2,2.4-2.4,3.6-3.6c3.8-3.2,7.7-6.2,11.6-9.1c-0.1,0.2-0.1,0.4-0.2,0.6
		c0,0.1,0,0.1-0.1,0.2c-3.4,2.9-6.7,5.9-10,9c-4,3.9-7.8,8-11.3,12.4C46.3,180.9,48.4,177.8,50.8,174.8z M65,166.5
		c-0.1,0.3-0.1,0.5-0.2,0.8c-6.3,5.6-12.7,11.9-18.7,19.2c3.4-4.6,8.2-10.1,14.3-15.8C61.8,169.3,63.4,167.9,65,166.5z M32.9,247.3
		c0-3.1,0.1-6.1,0.3-9.2c0.1-2.5,0.2-5,0.4-7.5c0.3-1.2,0.7-2.5,1.1-3.8c0.5-1.4,1-2.9,1.6-4.4c1-3.1,2.4-6,3.6-8.7
		c1.1-2.7,2.6-4.9,3.6-6.7c2.1-3.3,0.9-0.8-1.6,3.9c-1.1,2.4-2.4,5.4-3.7,8.5c-1.1,3.2-2.4,6.4-3.1,9.4
		c6.1-18.7,14.6-31.5,22.2-40.6c0.8-0.9,1.6-1.8,2.3-2.7c-6.4,13.7-11.8,28.1-15.8,43c-1.5,2.4-3,4.7-4.4,7.1
		c-0.8,1.5-1.7,2.9-2.5,4.4C35.5,242.5,34.2,244.9,32.9,247.3z M40.5,355.3c-1.4-2.3-2.6-4.6-3.9-7c0-1.6,0-3.2,0-4.7
		c0.8,1.5,1.6,3,2.4,4.4C39.5,350.5,39.9,352.9,40.5,355.3z M34.5,296.6c-0.4-5.9-0.7-11.9-1-17.8c-0.2-5.3-0.4-10.7-0.5-16
		c1-2.9,2.1-5.8,3.3-8.7c0.9-2.1,1.9-4.1,2.9-6C36.3,263.8,34.6,280,34.5,296.6z M36.5,354.6c0-1.3,0.1-2.6,0.1-4
		c1.5,2.7,3,5.3,4.6,7.9c2.8,12.3,6.5,24.3,10.9,35.9c0.2,1.4,0.3,2.8,0.5,4.4c0.5,4.7,1.6,9.9,2.6,15.2c0.5,2.7,1.3,5.3,1.9,8
		c0.7,2.7,1.3,5.4,2.2,8c0.4,1.2,0.8,2.5,1.2,3.6C49.2,408.6,42.1,381.5,36.5,354.6z M63,439.1c-0.5-1.5-1-3-1.5-4.5
		c-4.3-13.4-7-26.7-8.8-38.5c0.4,1,0.8,2,1.2,3.1c0.4,2.9,0.9,5.8,1.4,8.6c0.6,3.1,1.1,6.1,1.8,8.9c0.7,2.7,1.4,5.3,2,7.5
		c1.2,4.5,2.7,7.8,3.7,9.4c-3.1-9.9-5.4-20-7.1-30.3c0.5,1.1,1,2.2,1.5,3.4c1,5.2,2.2,10.5,3.7,15.8c3.5,12.6,8.2,25.9,14.9,39.5
		C71,454.6,66.8,447,63,439.1z M85.8,468.8c-2-4-3.6-7.3-4.5-9.4c-0.8-2.1-1-3.1-0.4-2.1c0.5,1,2.2,3.7,5.1,8.9
		c1.3,2.6,3.3,5.6,5.7,9.4c2.3,3.7,5.2,8,8.8,12.7c-1.9-2.5-3.8-5.6-6-8.8c-2.1-3.3-4.2-6.9-6.5-10.6c-2-3.8-4.3-7.7-6.3-11.7
		c-1-2-1.9-4-2.8-6c-1-2-1.9-4-2.7-6c-1.3-3.1-2.5-6.1-3.5-8.9c17.7,29.4,40.9,55.1,68.1,75.6c-13.9-2.6-25.9-8-36.2-16.2
		C97.5,487.3,91.2,478.4,85.8,468.8z M124.2,515.3c1.6,1.7,3.2,3.4,4.8,5c-2.2-1.8-4.4-3.7-6.5-5.7
		C123.2,514.8,123.7,515.1,124.2,515.3z M112.7,513.5c-2.3-2.1-7.7-7.1-13.4-13.6c1.2,1.1,2.5,2.1,3.8,3.2
		C106.1,506.6,109.3,510,112.7,513.5z M113.3,517.5c-7.1-6.5-15.6-15.5-23.6-26.5c0.6,0.5,1.1,1,1.7,1.4c1.3,1.3,2.6,2.6,3.9,3.9
		c2.4,3,4.9,6,7.5,8.8c8.3,9.1,17.4,17.5,27.5,25.8C128.6,530,122,525.5,113.3,517.5z M187.9,553.8c-16.1-8.3-16.6-11.7-28.4-20.5
		c2.1,0.7-27.6-15.6-25.4-15.1c6.1,1.3,12.4,2,18.7,2.4c29.9,20.1,35.1,33.3,76.9,39.7c-0.1,0,4.9,5.2-6.3,5.8
		C205.7,561.4,204,562.2,187.9,553.8z M225.2,566.5c3-0.2,6-0.4,9-0.5c-3.4,0.3-6,0.6-7.9,0.8C226,566.7,225.6,566.6,225.2,566.5z
		 M315.6,572.2c-24.6,3.3-49.6,2.4-73.9-2c-3-0.6-5.9-1.2-8.9-1.8c0.4,0,0.8,0,1.3,0c4.4,0.1,9.6-0.2,15.2-0.4
		c13.6-0.5,29.1-2,38.5-2.7c4.4,0.2,8.9,0.3,13.4,0.3c25.1,0,49.3-3.5,72.3-9.9C355.1,564,335.6,569.6,315.6,572.2z M372,38.6
		C372,38.6,372,38.6,372,38.6c-1.4-0.1-2.7-0.2-4.1-0.3c-6.3-2.3-13.8-4.8-22.8-7.3c0,0,0.1,0,0.2,0c4.3,1.1,7.3,2,9.2,2.6
		c2.3,0.6,3.1,0.8,3,0.6c-0.4-0.3-4.6-1.9-8.7-3.4c-0.1,0-0.2,0-0.3-0.1c1.1-0.1,2.2-0.2,3.3-0.3c2.1,0.6,4.6,1.3,7.5,2.2
		c-2.3-0.8-4.5-1.5-6.8-2.2c4.8-0.3,9.4-0.3,13.7-0.1c12,0.7,21.7,2.3,27.4,3.5c1.9,0.8,4.5,1.6,7.4,2.6c-9.6-0.1-17.8,0.8-25.1,1.8
		C374.6,38.2,373.3,38.4,372,38.6z M396.9,49.8c6.8,1.9,13.3,4.5,19.5,8c0.7,0.3,1,0.1,1.1-0.4c1.9,0.5,3.2,0.8,4.1,1
		c1.2,0.3,1.6,0.3,1.6,0.2c0-0.3-1.7-1.3-1.6-1.1c-1.9-0.6-3.2-0.9-4.1-1.1c0.9-0.2,1.3-1.7,0.5-2c-0.3-0.1-0.6-0.3-0.9-0.4
		c-0.2-0.9-0.6-1.7-1-1.9c-0.5-0.2-0.9-0.4-1.3-0.6c-0.3-0.4-0.6-0.7-1-0.9c-3.5-1.7-6.8-3.2-10.2-4.6c4,0.2,7.7,0.6,11.1,1.3
		c5.5,1.1,10.1,2.7,14.2,5c4.6,8.9,2.1,2.1,1.5,0.9c2.7,1.7,5,3.7,7,6c0.7,0.7,1.3,1.5,1.9,2.3c0.6,0.8,1.2,1.6,1.7,2.5
		c0.5,0.9,1.1,1.9,1.6,2.8c0.7,1.1,1.3,2.3,2.2,3.3c3.3,4.4,8.6,7.4,14.1,9c5.5,1.7,11.4,2.3,17.3,3.7c0.1,0,0.2,0.1,0.2,0.1
		c8.6,8.4,16.4,17.9,23.3,27.9c8,11.5,5.1,5.2,10.6,16.7c0.3,0.6,10.1,19.4,10.3,19.9C490.3,103.4,447.3,69.2,396.9,49.8z
		 M547.7,196.7c-1.7-7.5-3.6-15-5.8-22.5c1.8,5.5,3.5,10.7,4.8,15.8c1,3.5,1.8,6.9,2.5,10.2C548.7,199.1,548.2,197.9,547.7,196.7z
		 M550.7,204.2c-1.4-7.1-3-14.2-4.9-21.2c3.1,10,5.6,19.6,7.5,28.5C552.5,209.1,551.6,206.7,550.7,204.2z M554.3,214.4
		c-0.5-2.3-1-4.6-1.5-7.1c-2.3-9.7-4.9-20.9-8.7-32.6c-3.8-11.7-8.3-23.9-13.9-35.8c-2.3-4.9-4.8-9.7-7.4-14.4
		c6.6,10.2,13.1,22.5,19.1,37.5c-0.2-0.4-0.5-0.9-0.7-1.3c5.2,13.7,8.3,25.1,10.2,34.6c1.6,8,2.7,14.5,3.2,19.9
		C554.5,215,554.4,214.7,554.3,214.4z M563.4,241.7c0.2-1.9,0.4-3.6,0.4-4.9c0.2-3,0.3-4.8,0.4-5.7c0.2-1.7,0.2,0.3,0.3,3.2
		c0.1,3.3-0.2,7.6-0.2,9.5C564,243.1,563.7,242.4,563.4,241.7z"/>
	<path class="st0" d="M362.1,573.6c1.6-0.6,3.3-1.2,5-1.8C365.4,572.4,363.8,573,362.1,573.6z"/>
	<path class="st0" d="M160.8,563.4l-6.2-0.2l-12.4-0.3c4.7,0.4,11.5,1,18.1,1.5c6.6,0.4,12.9,0.8,16.4,1.2l-9.6-2.3L160.8,563.4z"/>
	<g>
		<path class="st2" d="M570.4,268.1c0.3,1.4,0.7,2.7,1,4C571.1,270.8,570.8,269.5,570.4,268.1z"/>
		<path class="st3" d="M176.4,202.3c-12.8,0-19.8,4-27.2,9.8h-0.4v-7.1h-17.1v115.4h17.1v-42h0.4c7.4,6.7,14.9,9.7,27.2,9.7
			c21.3,0,39.2-16,39.2-42.9S197.6,202.3,176.4,202.3z M172.7,271.6c-15,0-24.8-11-24.8-26.4s9.8-26.4,24.8-26.4
			c15,0,25.8,11,25.8,26.4C198.6,260.5,187.7,271.6,172.7,271.6z"/>
		<path class="st3" d="M176.4,298.9c-12.8,0-19.8,4-27.2,9.8h-0.4v-7.1h-17.1v115.4h17.1v-42h0.4c7.4,6.7,14.9,9.7,27.2,9.7
			c21.3,0,39.2-16,39.2-42.9S197.6,298.9,176.4,298.9z M172.7,368.1c-15,0-24.8-11-24.8-26.4s9.8-26.4,24.8-26.4
			c15,0,25.8,11,25.8,26.4C198.6,357.1,187.7,368.1,172.7,368.1z"/>
		<g>
			<rect x="230" y="204.9" class="st3" width="17.1" height="80.6"/>
			<path class="st3" d="M227.4,175.4c0,6.8,4.5,11.1,11.1,11.1s11.1-4.4,11.1-11.1s-4.5-11.1-11.1-11.1
				C232,164.3,227.4,168.7,227.4,175.4z"/>
		</g>
		<path class="st3" d="M275.6,318.9H273c-16.7,0-25.6,8-25.6,27.2v35.7h-17.1v-80.6h17.1v17.6h0.4c3.8-12,13.1-20,26.7-20h1.2V318.9
			z"/>
		<path class="st3" d="M362.8,341.6c0-26-14-42.9-38.5-42.9c-25.8,0-41.1,18.7-41.1,43.1c0,25.5,16.4,42.7,42,42.7
			c19.9,0,30.5-11,36.4-19.2l-12-11.3c-4,5.4-11.5,14.1-24.8,14.1c-13.8,0-23.7-9.4-24.4-23.7h62.4V341.6z M301.2,332
			c2.1-11.7,10.5-17.6,22-17.6c12.2,0,20.4,6.5,21.1,17.6H301.2z"/>
		<path class="st3" d="M370.6,375.9l7.7-15.2c7.5,4.4,16,7.7,25.6,7.7c8.2,0,12.5-2.4,12.5-7.5c0-3.3-1.7-5.8-8.5-9.1l-14.6-7.1
			c-12.2-5.8-16.9-14-16.9-23.2c0-14.8,11-22.8,28.6-22.8c9.2,0,19.4,2.4,27.9,6.3l-7,14.8c-6.1-2.6-13.6-5.2-21.5-5.2
			c-7.5,0-9.9,2.4-9.9,6.1c0,3.8,2.3,6.3,9.2,9.6l15,7.1c10.5,4.9,16,11.9,16,22.7c0,16.4-12.5,24.4-31.4,24.4
			C391.9,384.5,379.8,381.3,370.6,375.9z"/>
		<path class="st3" d="M440.9,375.9l7.7-15.2c7.5,4.4,16,7.7,25.6,7.7c8.2,0,12.5-2.4,12.5-7.5c0-3.3-1.7-5.8-8.5-9.1l-14.6-7.1
			c-12.2-5.8-16.9-14-16.9-23.2c0-14.8,11-22.8,28.6-22.8c9.2,0,19.4,2.4,27.9,6.3l-7,14.8c-6.1-2.6-13.6-5.2-21.5-5.2
			c-7.5,0-9.9,2.4-9.9,6.1c0,3.8,2.3,6.3,9.2,9.6l15,7.1c10.5,4.9,16,11.9,16,22.7c0,16.4-12.5,24.4-31.4,24.4
			C462.1,384.5,450.1,381.3,440.9,375.9z"/>
		<g>
			<path class="st3" d="M362.3,202.3c-25.3,0-44.1,18.1-44.1,42.9s18.8,42.9,44.1,42.9s44.1-18.1,44.1-42.9
				C406.4,220.4,387.5,202.3,362.3,202.3z M362.3,272.7c-16.1,0-27.3-10.8-27.3-27.5s11.2-27.5,27.3-27.5s27.3,10.8,27.3,27.5
				C389.6,261.9,378.4,272.7,362.3,272.7z"/>
			<path class="st3" d="M351.7,245.2c0,6.4,4.3,10.6,10.5,10.6s10.5-4.2,10.5-10.6c0-6.4-4.3-10.6-10.5-10.6
				C356,234.6,351.7,238.8,351.7,245.2z"/>
		</g>
		<g>
			<path class="st3" d="M294.8,213.4c0,6.8,4.5,11.1,11.1,11.1s11.1-4.4,11.1-11.1s-4.5-11.1-11.1-11.1
				C299.3,202.3,294.8,206.7,294.8,213.4z"/>
			<g>
				<path class="st3" d="M290.2,219.4v39.5c0,6.9,2.7,11,10,11h9.8v15.7h-11.6c-14.1,0-25.3-8.2-25.3-22.9v-43.3h-14.3v-14.5h14.3
					v-29.5h17.1v29.5h-0.1L290.2,219.4L290.2,219.4L290.2,219.4z"/>
			</g>
		</g>
	</g>
</g>
<path class="st0" d="M898.5,159.1c-1.8,0.1-3.6,0.4-5.6,0.7C896.1,159.3,897.6,159.2,898.5,159.1z"/>
<path class="st0" d="M992.6,162.2c-2.2-1.1-6.7-2.8-8.5-3.6c0.7,0.6,1.5,1.2,2.2,1.8C988.4,160.9,990.6,161.5,992.6,162.2z"/>
<path class="st0" d="M930.4,154.1c1.7-0.3,3.5-0.4,5.2-0.5c1.8-0.1,3.5-0.3,5.2-0.2c-1.6-0.2-3.3-0.2-4.9-0.3
	C934.1,153.4,932.2,153.6,930.4,154.1z"/>
</svg>
